# xmcd
#
# Track frame offsets: 
#        150
#        18947
#        35037
#        50587
#        65357
#        83082
#        99685
#        114627
#        129477
#        147730
#        157500
#
# Disc length: 2373 seconds
#
# Revision: 0
# Processed by: cddbd v1.5.1PL0 Copyright (c) Steve Scherf et al.
# Submitted via: ExactAudioCopy v0.95a5
#
DISCID=9109430b
DTITLE=Josh Turner - Long Black Train
DYEAR=2003
DGENRE=Country
TTITLE0=Long Black Train
TTITLE1=In My Dreams
TTITLE2=What It Ain't
TTITLE3=I Had One One Time
TTITLE4=Jacksonville
TTITLE5=Backwoods Boy
TTITLE6=Unburn All Our Bridges
TTITLE7=You Don't Mess Around With Jim
TTITLE8=She'll Go On You
TTITLE9=Good Woman Bad
TTITLE10=The Difference Between A Woman And A Man
EXTD=
EXTT0=
EXTT1=
EXTT2=
EXTT3=
EXTT4=
EXTT5=
EXTT6=
EXTT7=
EXTT8=
EXTT9=
EXTT10=
PLAYORDER=
